v 0.500000 -0.500000 -0.500000
v 0.500000 -0.500000 0.500000
v -0.500000 -0.500000 0.500000
v -0.500000 -0.500000 -0.500000
v 0.500000 0.500000 -0.500000
v 0.500000 0.500000 0.500000
v -0.500000 0.500000 0.500000
v -0.500000 0.500000 -0.500000

#UV coordinates
vt 0.0 0.0
vt 0.0 0.0
vt 0.0 0.0
vt 0.0 0.0
vt 0.0 0.0
vt 0.0 0.0
vt 0.0 0.0
vt 0.0 0.0
vt 0.0 0.0
vt 0.0 0.0
vt 0.3 0.15
vt 0.3 0.85
vt 0.7 0.15
vt 0.7 0.85

#normals
vn 0.000000 0.000000 -1.000000
vn -1.000000 0.000000 0.000000
vn 0.000000 0.000000 1.000000
vn 0.000000 0.000000 1.000000
vn 1.000000 0.000000 0.000000
vn 1.000000 0.000000 0.000000
vn 0.000000 1.000000 0.000000
vn 0.000000 -1.000000 0.000000

#faces (index data)
# format: vertex/Uvcoordinate/normal
f 5/1/1 1/1/1 4/1/1
f 5/1/1 4/1/1 8/1/1
f 3/1/2 7/1/2 8/1/2
f 3/1/2 8/1/2 4/1/2
f 2/13/3 6/14/3 3/11/3
f 6/14/4 7/12/4 3/11/4
f 1/1/5 5/1/5 2/1/5
f 5/1/6 6/1/6 2/1/6
f 5/1/7 8/1/7 6/1/7
f 8/1/7 7/1/7 6/1/7
f 1/1/8 2/1/8 3/1/8
f 1/1/8 3/1/8 4/1/8
